# xmcd
#
# Track frame offsets:
#	150
#	13698
#	30552
#	46180
#	58452
#	70959
#	88383
#	107212
#	118702
#	133727
#	150805
#	162812
#	176163
#	191780
#	201825
#	212807
#	225238
#	236662
#
# Disc length: 3325 seconds
#
# Revision: 1
# Processed by: cddbd v1.5.2PL0 Copyright (c) Steve Scherf et al.
# Submitted via: audiograbber 1.83.01
#
DISCID=fd0cfb12
DTITLE=Diverse Artister - På Landeveien
DYEAR=2001
DGENRE=Country
TTITLE0=Ottar Big Hand Johansen - Three weeks on an endless highway
TTITLE1=Teddy Nelson - Semi-Truck
TTITLE2=Stein Ingebrigtsen - Landevei
TTITLE3=Arne Benoni - She's gone to Houston
TTITLE4=Lillian Askeland - Jeg en vandrer
TTITLE5=Boots - Heatstroke
TTITLE6=Lars Børke - Bobby McGee
TTITLE7=Ottar Big Hand Johansen - Vær på vei
TTITLE8=Rune Rudberg - Gamle Mack
TTITLE9=Scarecrows - Rainbow's end
TTITLE10=Jonas Fjeld - Du er ei stjerna
TTITLE11=Arne Benoni - Easy Street
TTITLE12=Anne Kristin Sagmo - The highway makes me free
TTITLE13=Tom Bråthen and Phoenix - Trailersjåfør
TTITLE14=Vidar Lønn-Arnesen - Hvileløs kamp
TTITLE15=Big Hand's Country Team - Bru over Mjøsa
TTITLE16=Ørnulf Holthe - Etterstad
TTITLE17=Mimix - Farvel
EXTD=TVA A/S 2707-2
EXTT0=
EXTT1=
EXTT2=
EXTT3=
EXTT4=
EXTT5=
EXTT6=
EXTT7=
EXTT8=
EXTT9=
EXTT10=
EXTT11=
EXTT12=
EXTT13=
EXTT14=
EXTT15=
EXTT16=
EXTT17=
PLAYORDER=
